# xmcd
# 
# Track frame offsets:
#     150
#     14644
#     20430
#     73915
#     80916
#     149276
#     155595
# 
# Disc length: 2254
# 
# Revision: 0
# Processed by: cddbd v1.5.2PL0 Copyright (c) Steve Scherf et al.
# Submitted via: BonkEnc v1.0
# 
DISCID=6208cc07
DTITLE=ARIA - 夜明け前より瑠璃色な -Brighter than dawning blue- 初回限定版特典ドラマCD Arialize
DYEAR=2006
DGENRE=Drama
TTITLE0=オープニングトーク
TTITLE1=遠山翠の質問コーナー１
TTITLE2=満ヶ崎ニュース
TTITLE3=遠山翠の質問コーナー２
TTITLE4=アドレナリン座談会
TTITLE5=遠山翠の質問コーナー３
TTITLE6=エンディングトーク
EXTD=
EXTT0=
EXTT1=
EXTT2=
EXTT3=
EXTT4=
EXTT5=
EXTT6=
PLAYORDER=
